<?xml version="1.0" encoding="UTF-8"?>
<svg width="872px" height="269px" viewBox="0 0 872 269" version="1.1" xmlns="http://www.w3.org/2000/svg" xmlns:xlink="http://www.w3.org/1999/xlink">
    <!-- Generator: Sketch 52.3 (67297) - http://www.bohemiancoding.com/sketch -->
    <title>Group</title>
    <desc>Created with Sketch.</desc>
    <g id="Page-1" stroke="none" stroke-width="1" fill="none" fill-rule="evenodd">
        <g id="Artboard" transform="translate(-149.000000, -394.000000)" fill="#7109AA">
            <g id="Group" transform="translate(149.000000, 394.000000)">
                <path d="M103.286046,253.029203 C106.304275,255.374435 107.836692,256.736584 110.084362,258.328036 C112.150577,259.790855 114.599587,260.826137 116.927419,261.845885 C123.009861,264.509283 129.527917,265.860868 136.301997,265.860868 C148.524673,265.860868 159.059576,262.403918 167.613398,255.584475 C171.635838,252.377957 175.116402,248.289024 178.427318,243.385413 C178.580809,243.159838 178.734299,242.931778 178.886546,242.70061 C178.897732,242.684453 179.143192,242.320302 179.144435,242.299174 C180.056056,240.845055 181.898561,237.650966 183.000335,235.727055 C183.40115,235.027959 184.40474,235.014288 184.824819,235.701577 L199.764335,260.146927 L199.82772,260.085407 L200.924523,261.880063 C203.625207,266.298347 209.447895,267.601461 213.774209,264.755365 C217.857549,262.069595 219.112192,256.650207 216.624655,252.442584 L214.678373,249.15031 L213.445479,247.002689 L213.506999,246.944275 L210.237718,241.414275 L209.757362,240.575981 L196.674644,218.445414 C196.667187,218.440442 196.660972,218.437335 196.653515,218.433607 L195.088784,215.786365 C194.894902,215.459499 194.891795,215.051848 195.080084,214.721875 L196.448447,212.320094 L270.205821,83.2322614 C273.009039,78.3124932 271.177719,72.0492188 266.166603,69.4150269 C261.421453,66.9206541 255.5534,68.6071832 252.857067,73.2404776 L198.24621,167.065311 L188.123929,184.117027 C188.125171,184.149962 188.125171,184.182276 188.126414,184.215211 L183.726773,191.670987 C183.318501,192.372568 182.304968,192.373811 181.895454,191.67223 L177.661731,184.435815 C177.663595,184.4296 177.664838,184.423386 177.666702,184.418415 L140.722767,121.264301 C138.389341,117.275417 132.63128,117.253667 130.268026,121.225151 L127.229912,126.331345 L102.163765,168.450452 L90.0802871,191.670987 C89.3917557,192.488152 88.4447143,192.219078 88.1172269,191.670987 L18.8508428,71.9634631 C16.0855316,67.3046905 10.1453946,65.644261 5.36544552,68.1945615 C0.297779773,70.8983522 -1.51179014,77.269132 1.37780467,82.2330209 L44.9895582,157.161768 L72.3661388,204.055853 C79.5652691,215.752187 94.4687427,219.905746 104.11129,204.897874 L134.120819,153.603527 C134.531577,152.907539 135.538274,152.90816 135.947789,153.605391 L171.227567,213.612022 C171.419585,213.938888 171.422692,214.344053 171.235645,214.672783 L169.749213,217.293304 L164.529299,226.495265 L164.518114,226.517015 C164.493879,226.563 162.05854,231.20313 157.443267,235.774283 C153.586746,239.594762 149.413922,242.424079 144.934739,243.896219 C142.308626,244.751912 139.607942,245.18939 136.871216,245.18939 C136.722697,245.18939 136.575421,245.187526 136.425038,245.18504 C128.875428,245.059514 125.862792,245.265203 119.917684,240.239173 C115.688933,236.664775 111.874046,232.808875 111.874046,232.808875 C111.874046,232.808875 104.106318,224.626661 97.3744944,230.530134 C89.8951045,237.089204 95.5885384,244.077052 95.5885384,244.077052 C95.5885384,244.077052 99.9894224,250.467717 103.286046,253.029203 Z" id="Path"></path>
                <path d="M93.6513123,84.1766934 L105.751568,104.667338 C109.439064,110.911349 118.491264,110.855421 122.101704,104.566669 L122.641716,103.62522 C124.318302,100.704554 124.315817,97.1121355 122.63488,94.1939554 L115.03245,80.9962749 L106.279152,66.5663219 L106.263617,66.5420866 L106.221982,66.4718663 C106.217632,66.4637879 106.021885,66.1375433 106.021885,66.1375433 L106.010078,66.0890727 C105.247598,64.6492466 102.956429,59.7027574 103.040321,52.3899076 C103.094384,47.670236 105.302283,39.9602999 110.11206,33.3745094 C116.077054,25.2084523 124.154248,21.0070436 134.11869,20.8871099 L134.154732,20.8864885 C134.18456,20.8864885 134.243595,20.8852456 134.328729,20.8852456 C135.219843,20.8852456 143.258509,21.0020723 150.962231,25.0537192 C160.700476,30.1754483 166.016088,39.1971983 166.762411,51.8685377 L166.764897,51.919494 L166.76614,51.9704503 C166.786646,52.7316876 166.84941,59.6418584 162.801491,67.7215384 C162.749292,67.8253153 162.693364,67.9303349 162.634951,68.0322475 L147.627701,94.1759343 C145.951114,97.0966 145.954221,100.689019 147.635158,103.607199 C151.276669,109.928887 160.401574,109.922673 164.035006,103.596013 L178.959608,77.6095454 L178.991301,77.5561035 C179.272803,77.0875541 185.889665,65.9237754 186.694401,51.8380882 C186.962854,47.1407877 185.81323,40.9806687 183.540082,34.9379977 C180.844991,27.7755311 176.757302,21.1543197 171.719464,15.7902375 C167.219154,10.9991029 162.000483,7.23020123 156.206379,4.58730945 C149.630532,1.5877236 142.303389,0.0441206951 134.430642,0.00062141824 C134.314436,-7.10542736e-15 134.19761,-7.10542736e-15 134.081404,-7.10542736e-15 C124.517156,-7.10542736e-15 115.927292,2.20727759 108.549193,6.5615552 C102.944622,9.86874307 98.0627604,14.3796181 94.0378345,19.9680323 C90.446037,24.9555351 87.5216428,30.8745438 85.5797108,37.0862406 C83.9466237,42.3105037 83.0300318,47.6634004 83.0008251,52.1599828 C82.8982911,67.7165671 92.3842405,82.2720465 93.4655083,83.8802769 C93.5288929,83.9753539 93.5916562,84.0754022 93.6513123,84.1766934" id="Path"></path>
                <path d="M252.604924,83.7115525 C251.048181,81.1206963 250.623947,82.8815187 251.332211,80.2328854 C252.040474,77.5842521 253.633687,71.1349092 256.111897,69.6458503 C258.702754,68.0891069 261.305538,67.6367123 263.920329,68.2886529 C266.53512,68.9405935 268.620856,70.5619676 270.1776,73.1528237 L360.813502,253.2521 C362.302561,255.730311 362.738034,258.304934 362.119936,260.976048 C361.501838,263.647162 359.897384,265.761059 357.306528,267.317803 C354.828318,268.806861 352.236774,269.214174 349.531817,268.539753 C346.826861,267.865331 344.729885,266.289039 343.240826,263.810829 L252.604924,83.7115525 Z" id="I"></path>
                <path d="M242.34017,207.388564 C239.334149,207.70451 236.7806,206.981861 234.679448,205.220595 C232.578297,203.459329 231.376634,201.141069 231.074425,198.265744 C230.75848,195.259723 231.448455,192.709609 233.144373,190.615325 C234.84029,188.521042 237.191224,187.315946 240.197245,187 L310.311175,187.540011 C313.1865,187.237802 315.70394,187.931212 317.863572,189.620261 C320.023204,191.30931 321.260974,193.65681 321.576919,196.662831 C321.879128,199.538156 321.153045,202.05903 319.398648,204.225531 C317.64425,206.392031 315.329424,207.626367 312.454099,207.928575 L242.34017,207.388564 Z" id="I"></path>
                <path d="M453.721963,80 C465.498998,80 475.68753,81.5480494 484.287865,84.6441948 C492.8882,87.7403401 501.604624,92.8489032 510.437401,99.9700375 C512.296932,101.363303 513.536602,102.795249 514.156446,104.265918 C514.77629,105.736587 515.086207,107.478142 515.086207,109.490637 C515.086207,112.586782 513.962757,115.141064 511.715822,117.153558 C509.468888,119.166053 506.87333,120.172285 503.929072,120.172285 C500.984813,120.172285 498.273036,119.166053 495.79366,117.153558 C489.44026,111.735304 483.241914,107.826479 477.198435,105.426966 C471.154957,103.027454 463.329544,101.827715 453.721963,101.827715 C441.635006,101.827715 430.516722,105.001217 420.366777,111.348315 C410.216833,117.695413 402.158982,126.325788 396.192984,137.2397 C390.226986,148.153613 387.244032,160.034892 387.244032,172.883895 C387.244032,185.887705 390.226986,197.807686 396.192984,208.644195 C402.158982,219.480703 410.216833,228.072378 420.366777,234.419476 C430.516722,240.766574 441.635006,243.940075 453.721963,243.940075 C468.598218,243.940075 482.854415,238.831512 496.490981,228.614232 C499.125318,226.756545 501.682136,225.827715 504.161512,225.827715 C507.105771,225.827715 509.54637,226.872649 511.483382,228.962547 C513.420394,231.052445 514.388886,233.800233 514.388886,237.205993 C514.388886,240.456945 513.149217,243.320837 510.669841,245.797753 C493.934054,259.265985 474.951618,266 453.721963,266 C437.141137,266 421.993928,261.897669 408.279881,253.692884 C394.565833,245.488099 383.757467,234.26474 375.854456,220.022472 C367.951446,205.780203 364,190.067502 364,172.883895 C364,155.855096 367.951446,140.258498 375.854456,126.093633 C383.757467,111.928768 394.565833,100.70541 408.279881,92.423221 C421.993928,84.1410322 437.141137,80 453.721963,80 Z M708.828689,84.3764706 C712.237325,84.3764706 715.103635,85.5392216 717.427705,87.8647586 C719.751775,90.1902956 720.913793,93.0584148 720.913793,96.4692024 L720.913793,253.907268 C720.913793,257.318056 719.713042,260.186175 717.311502,262.511712 C714.909963,264.837249 712.082387,266 708.828689,266 C705.420052,266 702.553742,264.837249 700.229672,262.511712 C697.905602,260.186175 696.743584,257.318056 696.743584,253.907268 L696.743584,138.328659 L640.501367,252.977058 C637.867421,257.007989 634.381368,259.023424 630.043103,259.023424 C624.930149,259.023424 621.211693,256.620405 618.887622,251.814295 L563.342623,140.421631 L563.342623,253.907268 C563.342623,257.318056 562.180605,260.186175 559.856535,262.511712 C557.532465,264.837249 554.666155,266 551.257518,266 C547.848882,266 544.982572,264.837249 542.658502,262.511712 C540.334431,260.186175 539.172414,257.318056 539.172414,253.907268 L539.172414,96.4692024 C539.172414,93.0584148 540.334431,90.1902956 542.658502,87.8647586 C544.982572,85.5392216 547.848882,84.3764706 551.257518,84.3764706 C555.905659,84.3764706 559.469179,86.5469392 561.948188,90.8879416 L630.972727,229.2567 L698.138019,90.8879416 C700.617027,86.5469392 704.180548,84.3764706 708.828689,84.3764706 Z M810.674343,80 C823.842964,80 834.944252,82.7124729 843.978539,88.1375 C853.012825,93.5625271 860.668886,101.31245 866.94695,111.3875 C868.784432,114.332515 869.703159,117.122487 869.703159,119.7575 C869.703159,123.167517 868.171947,125.957489 865.109477,128.1275 C863.425118,129.212505 861.434542,129.755 859.13769,129.755 C856.840837,129.755 854.69714,129.173756 852.706535,128.01125 C850.715929,126.848744 849.184717,125.26001 848.112853,123.245 C843.978518,116.269965 838.810677,110.961268 832.609175,107.31875 C826.407673,103.676232 818.560211,101.855 809.066554,101.855 C797.429168,101.855 788.012213,104.141227 780.815409,108.71375 C773.618604,113.286273 770.020256,119.912457 770.020256,128.5925 C770.020256,136.65254 773.235801,143.394973 779.666988,148.82 C786.098175,154.245027 797.582266,157.809991 814.119605,159.515 C832.494425,161.375009 846.734697,166.993703 856.840849,176.37125 C866.947,185.748797 872,198.109923 872,213.455 C872,224.615056 869.014136,234.18621 863.04232,242.16875 C857.070503,250.15129 849.146481,256.11873 839.270014,260.07125 C829.393548,264.02377 818.789905,266 807.458765,266 C792.605785,266 779.092839,262.590034 766.91952,255.77 C754.746201,248.949966 746.362815,240.037555 741.76911,229.0325 C741.003493,227.172491 740.62069,225.622506 740.62069,224.3825 C740.62069,222.057488 741.462856,220.003759 743.147215,218.22125 C744.831573,216.438741 747.128392,215.237503 750.037738,214.6175 C750.497109,214.462499 751.262715,214.385 752.334579,214.385 C754.784555,214.385 757.119654,215.121243 759.339945,216.59375 C761.560235,218.066257 763.206288,220.042488 764.278153,222.5225 C767.034376,228.56753 772.470179,233.682479 780.585725,237.8675 C788.70127,242.052521 797.658861,244.145 807.458765,244.145 C818.943028,244.145 828.666225,241.471277 836.628647,236.12375 C844.591069,230.776223 848.572221,223.452547 848.572221,214.1525 C848.572221,205.317456 845.203554,197.761281 838.46612,191.48375 C831.728686,185.206219 821.469565,181.370007 807.688449,179.975 C788.701135,178.114991 773.771817,172.496297 762.900048,163.11875 C752.028279,153.741203 746.592476,142.000071 746.592476,127.895 C746.592476,117.97495 749.386939,109.411286 754.975946,102.20375 C760.564954,94.996214 768.221015,89.493769 777.944357,85.69625 C787.6677,81.898731 798.577586,80 810.674343,80 Z" id="CMS"></path>
            </g>
        </g>
    </g>
</svg>